<svg data-v-423bf9ae="" xmlns="http://www.w3.org/2000/svg" viewBox="0 0 364 90" class="iconLeftSlogan"><!----><!----><!----><g data-v-423bf9ae="" id="66e9adb6-bbbc-49d8-8175-68bcdca3ae26" fill="#022239" transform="matrix(3.9792745113372803,0,0,3.9792745113372803,185.15394592285156,-8.082901000976562)"><path d="M2.23 12.60L2.23 12.60Q2.23 13.40 2.53 13.90L2.53 13.90L2.53 13.90Q2.84 14.41 3.49 14.41L3.49 14.41L3.49 14.41Q4.14 14.41 4.68 13.83L4.68 13.83L4.68 13.83Q5.22 13.24 5.55 12.26L5.55 12.26L5.55 12.26Q5.88 11.27 6.13 10.16L6.13 10.16L6.13 10.16Q6.37 9.04 6.48 7.78L6.48 7.78L6.48 7.78Q6.69 5.45 6.69 4.07L6.69 4.07L6.69 4.07Q6.69 2.70 6.58 2.03L6.58 2.03L6.58 2.03Q8.02 2.49 8.02 4.93L8.02 4.93L8.02 4.93Q8.02 5.92 7.55 8.93L7.55 8.93L7.55 8.93Q7.08 11.94 7.08 13.33L7.08 13.33L7.08 13.33Q7.08 14.71 7.21 15.68L7.21 15.68L7.21 15.68Q6.41 15.41 6.12 14.73L6.12 14.73L6.12 14.73Q5.82 14.04 5.82 12.98L5.82 12.98L5.82 12.98Q5.39 14.18 4.54 14.88L4.54 14.88L4.54 14.88Q3.68 15.58 2.77 15.58L2.77 15.58L2.77 15.58Q1.85 15.58 1.28 14.88L1.28 14.88L1.28 14.88Q0.71 14.17 0.71 12.80L0.71 12.80L0.71 12.80Q0.71 10.51 1.91 9.04L1.91 9.04L1.91 9.04Q3.11 7.57 4.89 7.57L4.89 7.57L4.89 7.57Q5.39 7.57 5.96 7.73L5.96 7.73L5.96 7.73Q5.01 7.88 4.26 8.42L4.26 8.42L4.26 8.42Q3.50 8.96 3.08 9.69L3.08 9.69L3.08 9.69Q2.23 11.17 2.23 12.60L2.23 12.60ZM13.29 8.08L13.29 8.08L13.29 8.08Q12.45 8.08 11.87 9.04L11.87 9.04L11.87 9.04Q11.28 10.01 11.09 11.31L11.09 11.31L11.48 11.31L11.48 11.31Q12.22 11.31 12.77 11.10L12.77 11.10L12.77 11.10Q13.31 10.89 13.61 10.56L13.61 10.56L13.61 10.56Q14.17 9.91 14.17 9.10L14.17 9.10L14.17 9.10Q14.17 8.64 13.95 8.36L13.95 8.36L13.95 8.36Q13.73 8.08 13.29 8.08ZM15.26 13.75L15.26 13.75Q14.62 14.80 13.85 15.22L13.85 15.22L13.85 15.22Q13.08 15.64 12.06 15.64L12.06 15.64L12.06 15.64Q11.05 15.64 10.29 14.74L10.29 14.74L10.29 14.74Q9.53 13.85 9.53 12.22L9.53 12.22L9.53 12.22Q9.53 10.37 10.53 8.92L10.53 8.92L10.53 8.92Q11.02 8.22 11.81 7.78L11.81 7.78L11.81 7.78Q12.60 7.35 13.55 7.35L13.55 7.35L13.55 7.35Q15.65 7.35 15.65 9.38L15.65 9.38L15.65 9.38Q15.65 10.60 14.71 11.29L14.71 11.29L14.71 11.29Q13.76 11.98 12.52 11.98L12.52 11.98L12.52 11.98Q11.69 11.98 11.03 11.83L11.03 11.83L11.03 11.83Q11.02 11.97 11.02 12.26L11.02 12.26L11.02 12.26Q11.02 14.74 12.49 14.74L12.49 14.74L12.49 14.74Q13.87 14.74 14.74 13.37L14.74 13.37L14.74 13.37Q15.26 13.44 15.26 13.75L15.26 13.75ZM19.59 15.43L19.59 15.43L19.59 15.43Q19.25 15.62 18.84 15.62L18.84 15.62L18.84 15.62Q18.42 15.62 18.38 15.41L18.38 15.41L18.38 15.41Q18.16 14.52 17.86 12.73L17.86 12.73L17.86 12.73Q17.57 10.95 17.27 9.61L17.27 9.61L17.27 9.61Q16.97 8.27 16.55 7.59L16.55 7.59L16.55 7.59Q17.05 7.22 17.54 7.22L17.54 7.22L17.54 7.22Q18.17 7.22 18.44 7.95L18.44 7.95L18.44 7.95Q18.70 8.67 18.94 10.97L18.94 10.97L18.94 10.97Q19.18 13.27 19.36 13.96L19.36 13.96L19.36 13.96Q22.08 8.72 22.08 7.04L22.08 7.04L22.08 7.04Q22.95 7.63 22.95 8.25L22.95 8.25L22.95 8.25Q22.95 8.88 22.36 9.98L22.36 9.98L22.36 9.98Q21.78 11.07 20.91 12.64L20.91 12.64L20.91 12.64Q20.03 14.20 19.59 15.43ZM30.83 9.34L30.83 9.34L30.83 9.34Q30.83 9.98 30.55 11.61L30.55 11.61L30.55 11.61Q30.28 13.24 30.28 13.99L30.28 13.99L30.28 13.99Q30.28 14.73 30.46 15.06L30.46 15.06L30.46 15.06Q30.65 15.39 31.08 15.62L31.08 15.62L31.08 15.62Q30.90 15.64 30.56 15.64L30.56 15.64L30.56 15.64Q29.61 15.64 29.21 15.28L29.21 15.28L29.21 15.28Q28.81 14.92 28.81 14L28.81 14L28.81 14Q28.81 13.48 29.09 11.91L29.09 11.91L29.09 11.91Q29.37 10.33 29.37 9.59L29.37 9.59L29.37 9.59Q29.37 8.67 28.81 8.67L28.81 8.67L28.81 8.67Q27.92 8.67 26.96 10.25L26.96 10.25L26.96 10.25Q26.00 11.83 26.00 14.06L26.00 14.06L26.00 14.06Q26.00 14.94 26.08 15.43L26.08 15.43L26.08 15.43Q25.72 15.46 25.65 15.46L25.65 15.46L25.65 15.46Q24.42 15.46 24.42 14.25L24.42 14.25L24.42 14.25Q24.42 13.97 24.71 12.10L24.71 12.10L24.71 12.10Q25.00 10.22 25.00 9.11L25.00 9.11L25.00 9.11Q25.00 7.99 24.77 7.06L24.77 7.06L24.77 7.06Q25.59 7.38 25.92 7.97L25.92 7.97L25.92 7.97Q26.25 8.57 26.25 9.33L26.25 9.33L26.25 9.33Q26.25 10.09 26.08 11.10L26.08 11.10L26.08 11.10Q26.54 9.52 27.53 8.44L27.53 8.44L27.53 8.44Q28.52 7.35 29.37 7.35L29.37 7.35L29.37 7.35Q30.83 7.35 30.83 9.34ZM34.85 15.64L34.85 15.64Q34.05 15.36 33.73 14.78L33.73 14.78L33.73 14.78Q33.42 14.20 33.42 13.37L33.42 13.37L33.42 13.37Q33.42 12.54 33.64 11.00L33.64 11.00L33.64 11.00Q33.87 9.46 33.87 8.61L33.87 8.61L33.87 8.61Q33.87 7.76 33.78 7.29L33.78 7.29L33.78 7.29Q34.03 7.27 34.19 7.27L34.19 7.27L34.19 7.27Q34.82 7.27 35.10 7.55L35.10 7.55L35.10 7.55Q35.38 7.83 35.38 8.47L35.38 8.47L35.38 8.47Q35.38 8.68 35.03 10.68L35.03 10.68L35.03 10.68Q34.69 12.67 34.68 13.96L34.68 13.96L34.68 13.96Q34.68 15.26 34.85 15.64L34.85 15.64ZM35.06 5.88L35.06 5.88L35.06 5.88Q33.88 5.88 33.88 5.08L33.88 5.08L33.88 5.08Q33.88 4.80 34.09 4.30L34.09 4.30L34.09 4.30Q34.40 4.24 34.62 4.24L34.62 4.24L34.62 4.24Q35.80 4.24 35.80 5.04L35.80 5.04L35.80 5.04Q35.80 5.32 35.59 5.82L35.59 5.82L35.59 5.82Q35.28 5.88 35.06 5.88ZM39.19 11.10L39.19 11.10Q39.62 9.10 40.45 8.21L40.45 8.21L40.45 8.21Q41.27 7.32 42.06 7.32L42.06 7.32L42.06 7.32Q42.84 7.32 43.28 7.80L43.28 7.80L43.28 7.80Q43.72 8.27 43.72 9.14L43.72 9.14L43.72 9.14Q43.72 10.00 43.23 10.68L43.23 10.68L43.23 10.68Q42.74 11.35 41.89 11.68L41.89 11.68L42.06 12.19L42.06 12.19Q42.52 13.64 43.40 15.05L43.40 15.05L43.40 15.05Q44.28 16.46 44.83 16.98L44.83 16.98L44.83 16.98Q44.45 17.11 44.11 17.11L44.11 17.11L44.11 17.11Q43.76 17.11 43.41 16.93L43.41 16.93L43.41 16.93Q43.06 16.76 42.80 16.54L42.80 16.54L42.80 16.54Q42.55 16.32 42.26 15.86L42.26 15.86L42.26 15.86Q41.97 15.39 41.80 15.06L41.80 15.06L41.80 15.06Q41.64 14.74 41.38 14.08L41.38 14.08L41.38 14.08Q41.12 13.40 40.64 12.01L40.64 12.01L40.64 12.01Q40.46 12.03 40.11 12.03L40.11 12.03L40.11 12.03Q40.03 11.96 40.03 11.58L40.03 11.58L40.03 11.58Q40.66 11.56 41.15 11.33L41.15 11.33L41.15 11.33Q41.64 11.09 41.89 10.72L41.89 10.72L41.89 10.72Q42.42 9.98 42.42 9.23L42.42 9.23L42.42 9.23Q42.42 8.85 42.24 8.60L42.24 8.60L42.24 8.60Q42.07 8.36 41.73 8.36L41.73 8.36L41.73 8.36Q41.15 8.36 40.54 9.14L40.54 9.14L40.54 9.14Q39.94 9.91 39.53 11.27L39.53 11.27L39.53 11.27Q39.12 12.63 39.12 14.11L39.12 14.11L39.12 14.11Q39.12 14.94 39.20 15.43L39.20 15.43L39.20 15.43Q38.86 15.46 38.82 15.46L38.82 15.46L38.82 15.46Q38.16 15.46 37.85 15.18L37.85 15.18L37.85 15.18Q37.53 14.90 37.53 14.30L37.53 14.30L37.53 14.30Q37.53 13.71 37.77 12.01L37.77 12.01L37.77 12.01Q38.53 6.80 38.53 4.10L38.53 4.10L38.53 4.10Q38.53 2.88 38.36 2.46L38.36 2.46L38.36 2.46Q39.17 2.76 39.50 3.33L39.50 3.33L39.50 3.33Q39.83 3.91 39.83 4.91L39.83 4.91L39.83 4.91Q39.83 5.61 39.56 7.85L39.56 7.85L39.56 7.85Q39.28 10.09 39.19 11.10L39.19 11.10Z"></path></g><defs data-v-423bf9ae=""><linearGradient data-v-423bf9ae="" gradientTransform="rotate(25)" id="d1ae57bf-d78c-4343-b3c1-3b15cee423e2" x1="0%" y1="0%" x2="100%" y2="0%"><stop data-v-423bf9ae="" offset="0%" style="stop-color: rgb(0, 10, 104); stop-opacity: 1;"></stop><stop data-v-423bf9ae="" offset="100%" style="stop-color: rgb(0, 196, 238); stop-opacity: 1;"></stop></linearGradient></defs><g data-v-423bf9ae="" id="09ac5bb0-aaca-4797-88b7-d57d3b93c720" transform="matrix(5.454545497894287,0,0,5.454545497894287,-24.489347457885742,-63.567115783691406)" stroke="none" fill="url(#d1ae57bf-d78c-4343-b3c1-3b15cee423e2)"><path clip-rule="evenodd" d="M26.7 13.4L25.2 16l6.6 4-6.6 4 1.5 2.6 8.7-5.3v-2.6l-8.7-5.3zm-13.4 0l-8.7 5.3v2.6l8.7 5.3 1.5-2.6-6.6-4 6.6-4-1.5-2.6zm3 14.2l2.9.7 3.5-15.8-2.9-.7-3.5 15.8z"></path></g><!----><g data-v-423bf9ae="" id="b91557ce-78ed-42d9-b5ad-504b59c7e000" fill="#022239" transform="matrix(0.4602760374546051,0,0,0.4602760374546051,187.58200073242188,58.32430648803711)"><path d="M7.50 15.05L7.50 15.05Q7.98 15.05 8.39 14.92L8.39 14.92L8.39 14.92Q8.81 14.78 9.06 14.53L9.06 14.53L9.31 15.18L9.31 15.18Q9.02 15.44 8.52 15.60L8.52 15.60L8.52 15.60Q8.02 15.75 7.49 15.75L7.49 15.75L7.49 15.75Q6.38 15.75 5.66 15.11L5.66 15.11L5.66 15.11Q4.93 14.46 4.84 13.15L4.84 13.15L4.84 13.15Q3.63 13.09 2.73 12.49L2.73 12.49L2.73 12.49Q1.83 11.90 1.35 10.85L1.35 10.85L1.35 10.85Q0.87 9.80 0.87 8.40L0.87 8.40L0.87 8.40Q0.87 6.94 1.39 5.87L1.39 5.87L1.39 5.87Q1.90 4.80 2.86 4.22L2.86 4.22L2.86 4.22Q3.82 3.64 5.12 3.64L5.12 3.64L5.12 3.64Q6.43 3.64 7.38 4.22L7.38 4.22L7.38 4.22Q8.34 4.80 8.86 5.87L8.86 5.87L8.86 5.87Q9.38 6.94 9.38 8.40L9.38 8.40L9.38 8.40Q9.38 9.79 8.90 10.83L8.90 10.83L8.90 10.83Q8.43 11.87 7.55 12.47L7.55 12.47L7.55 12.47Q6.68 13.08 5.47 13.15L5.47 13.15L5.47 13.15Q5.63 15.05 7.50 15.05L7.50 15.05ZM1.61 8.40L1.61 8.40Q1.61 9.66 2.04 10.59L2.04 10.59L2.04 10.59Q2.46 11.52 3.25 12.02L3.25 12.02L3.25 12.02Q4.05 12.52 5.12 12.52L5.12 12.52L5.12 12.52Q6.20 12.52 7 12.02L7 12.02L7 12.02Q7.80 11.52 8.22 10.59L8.22 10.59L8.22 10.59Q8.65 9.66 8.65 8.40L8.65 8.40L8.65 8.40Q8.65 7.14 8.22 6.21L8.22 6.21L8.22 6.21Q7.80 5.28 7 4.78L7 4.78L7 4.78Q6.20 4.28 5.12 4.28L5.12 4.28L5.12 4.28Q4.05 4.28 3.25 4.78L3.25 4.78L3.25 4.78Q2.46 5.28 2.04 6.21L2.04 6.21L2.04 6.21Q1.61 7.14 1.61 8.40L1.61 8.40ZM25.72 3.78L25.72 9.65L25.72 9.65Q25.72 11.35 24.79 12.26L24.79 12.26L24.79 12.26Q23.87 13.16 22.16 13.16L22.16 13.16L22.16 13.16Q20.45 13.16 19.52 12.26L19.52 12.26L19.52 12.26Q18.59 11.35 18.59 9.65L18.59 9.65L18.59 3.78L19.29 3.78L19.29 9.51L19.29 9.51Q19.29 10.99 20.02 11.75L20.02 11.75L20.02 11.75Q20.75 12.52 22.16 12.52L22.16 12.52L22.16 12.52Q23.56 12.52 24.29 11.75L24.29 11.75L24.29 11.75Q25.02 10.99 25.02 9.51L25.02 9.51L25.02 3.78L25.72 3.78ZM41.55 13.02L40.39 10.12L35.97 10.12L34.82 13.02L34.08 13.02L37.77 3.78L38.60 3.78L42.29 13.02L41.55 13.02ZM36.23 9.48L40.14 9.48L38.53 5.45L38.19 4.47L38.18 4.47L37.84 5.42L36.23 9.48ZM51.72 12.38L57.26 12.38L57.26 13.02L51.02 13.02L51.02 3.78L51.72 3.78L51.72 12.38ZM66.72 3.78L66.72 13.02L66.02 13.02L66.02 3.78L66.72 3.78ZM82.94 3.78L82.94 4.42L79.56 4.42L79.56 13.02L78.86 13.02L78.86 4.42L75.49 4.42L75.49 3.78L82.94 3.78ZM97.68 3.78L94.40 9.42L94.40 13.02L93.70 13.02L93.70 9.42L90.43 3.78L91.25 3.78L94.05 8.69L96.85 3.78L97.68 3.78ZM120.85 3.64L120.85 3.64Q122.15 3.64 123.11 4.22L123.11 4.22L123.11 4.22Q124.07 4.80 124.59 5.87L124.59 5.87L124.59 5.87Q125.10 6.94 125.10 8.40L125.10 8.40L125.10 8.40Q125.10 9.86 124.59 10.93L124.59 10.93L124.59 10.93Q124.07 12.00 123.11 12.58L123.11 12.58L123.11 12.58Q122.15 13.16 120.85 13.16L120.85 13.16L120.85 13.16Q119.55 13.16 118.59 12.58L118.59 12.58L118.59 12.58Q117.63 12.00 117.11 10.93L117.11 10.93L117.11 10.93Q116.59 9.86 116.59 8.40L116.59 8.40L116.59 8.40Q116.59 6.94 117.11 5.87L117.11 5.87L117.11 5.87Q117.63 4.80 118.59 4.22L118.59 4.22L118.59 4.22Q119.55 3.64 120.85 3.64L120.85 3.64ZM120.85 4.28L120.85 4.28Q119.77 4.28 118.98 4.78L118.98 4.78L118.98 4.78Q118.19 5.28 117.76 6.21L117.76 6.21L117.76 6.21Q117.33 7.14 117.33 8.40L117.33 8.40L117.33 8.40Q117.33 9.66 117.76 10.59L117.76 10.59L117.76 10.59Q118.19 11.52 118.98 12.02L118.98 12.02L118.98 12.02Q119.77 12.52 120.85 12.52L120.85 12.52L120.85 12.52Q121.93 12.52 122.72 12.02L122.72 12.02L122.72 12.02Q123.52 11.52 123.95 10.59L123.95 10.59L123.95 10.59Q124.38 9.66 124.38 8.40L124.38 8.40L124.38 8.40Q124.38 7.14 123.95 6.21L123.95 6.21L123.95 6.21Q123.52 5.28 122.72 4.78L122.72 4.78L122.72 4.78Q121.93 4.28 120.85 4.28L120.85 4.28ZM141.02 3.78L137.47 13.02L136.64 13.02L133.07 3.78L133.83 3.78L136.56 10.93L137.05 12.36L137.54 10.93L140.28 3.78L141.02 3.78ZM150.50 12.38L156.34 12.38L156.34 13.02L149.80 13.02L149.80 3.78L156.11 3.78L156.11 4.42L150.50 4.42L150.50 7.99L154.94 7.99L154.94 8.65L150.50 8.65L150.50 12.38ZM172.31 13.02L171.49 13.02L168.84 9.02L168.80 9.02L166.07 9.02L166.07 13.02L165.37 13.02L165.37 3.78L168.80 3.78L168.80 3.78Q170.18 3.78 171.00 4.48L171.00 4.48L171.00 4.48Q171.82 5.18 171.82 6.40L171.82 6.40L171.82 6.40Q171.82 7.41 171.23 8.07L171.23 8.07L171.23 8.07Q170.65 8.74 169.62 8.93L169.62 8.93L172.31 13.02ZM166.07 4.42L166.07 8.36L168.78 8.36L168.78 8.36Q169.90 8.36 170.50 7.85L170.50 7.85L170.50 7.85Q171.09 7.35 171.09 6.40L171.09 6.40L171.09 6.40Q171.09 5.45 170.50 4.93L170.50 4.93L170.50 4.93Q169.90 4.42 168.78 4.42L168.78 4.42L166.07 4.42ZM198.76 15.05L198.76 15.05Q199.23 15.05 199.65 14.92L199.65 14.92L199.65 14.92Q200.06 14.78 200.31 14.53L200.31 14.53L200.56 15.18L200.56 15.18Q200.27 15.44 199.77 15.60L199.77 15.60L199.77 15.60Q199.28 15.75 198.74 15.75L198.74 15.75L198.74 15.75Q197.64 15.75 196.91 15.11L196.91 15.11L196.91 15.11Q196.18 14.46 196.10 13.15L196.10 13.15L196.10 13.15Q194.88 13.09 193.98 12.49L193.98 12.49L193.98 12.49Q193.09 11.90 192.61 10.85L192.61 10.85L192.61 10.85Q192.12 9.80 192.12 8.40L192.12 8.40L192.12 8.40Q192.12 6.94 192.64 5.87L192.64 5.87L192.64 5.87Q193.16 4.80 194.12 4.22L194.12 4.22L194.12 4.22Q195.08 3.64 196.38 3.64L196.38 3.64L196.38 3.64Q197.68 3.64 198.64 4.22L198.64 4.22L198.64 4.22Q199.60 4.80 200.12 5.87L200.12 5.87L200.12 5.87Q200.63 6.94 200.63 8.40L200.63 8.40L200.63 8.40Q200.63 9.79 200.16 10.83L200.16 10.83L200.16 10.83Q199.68 11.87 198.81 12.47L198.81 12.47L198.81 12.47Q197.93 13.08 196.73 13.15L196.73 13.15L196.73 13.15Q196.88 15.05 198.76 15.05L198.76 15.05ZM192.86 8.40L192.86 8.40Q192.86 9.66 193.29 10.59L193.29 10.59L193.29 10.59Q193.72 11.52 194.51 12.02L194.51 12.02L194.51 12.02Q195.30 12.52 196.38 12.52L196.38 12.52L196.38 12.52Q197.46 12.52 198.25 12.02L198.25 12.02L198.25 12.02Q199.05 11.52 199.48 10.59L199.48 10.59L199.48 10.59Q199.91 9.66 199.91 8.40L199.91 8.40L199.91 8.40Q199.91 7.14 199.48 6.21L199.48 6.21L199.48 6.21Q199.05 5.28 198.25 4.78L198.25 4.78L198.25 4.78Q197.46 4.28 196.38 4.28L196.38 4.28L196.38 4.28Q195.30 4.28 194.51 4.78L194.51 4.78L194.51 4.78Q193.72 5.28 193.29 6.21L193.29 6.21L193.29 6.21Q192.86 7.14 192.86 8.40L192.86 8.40ZM216.97 3.78L216.97 9.65L216.97 9.65Q216.97 11.35 216.05 12.26L216.05 12.26L216.05 12.26Q215.12 13.16 213.42 13.16L213.42 13.16L213.42 13.16Q211.71 13.16 210.78 12.26L210.78 12.26L210.78 12.26Q209.85 11.35 209.85 9.65L209.85 9.65L209.85 3.78L210.55 3.78L210.55 9.51L210.55 9.51Q210.55 10.99 211.27 11.75L211.27 11.75L211.27 11.75Q212.00 12.52 213.42 12.52L213.42 12.52L213.42 12.52Q214.82 12.52 215.54 11.75L215.54 11.75L215.54 11.75Q216.27 10.99 216.27 9.51L216.27 9.51L216.27 3.78L216.97 3.78ZM232.81 13.02L231.64 10.12L227.22 10.12L226.07 13.02L225.33 13.02L229.03 3.78L229.85 3.78L233.55 13.02L232.81 13.02ZM227.49 9.48L231.39 9.48L229.78 5.45L229.45 4.47L229.43 4.47L229.10 5.42L227.49 9.48ZM249.37 3.78L249.37 13.02L248.50 13.02L243.60 5.77L242.91 4.54L242.90 4.54L242.94 5.70L242.94 13.02L242.27 13.02L242.27 3.78L243.15 3.78L248.04 11.02L248.74 12.26L248.71 11.10L248.71 3.78L249.37 3.78ZM265.58 3.78L265.58 4.42L262.21 4.42L262.21 13.02L261.51 13.02L261.51 4.42L258.13 4.42L258.13 3.78L265.58 3.78ZM275.04 3.78L275.04 13.02L274.34 13.02L274.34 3.78L275.04 3.78ZM291.26 3.78L291.26 4.42L287.88 4.42L287.88 13.02L287.18 13.02L287.18 4.42L283.81 4.42L283.81 3.78L291.26 3.78ZM306.00 3.78L302.72 9.42L302.72 13.02L302.02 13.02L302.02 9.42L298.75 3.78L299.57 3.78L302.37 8.69L305.17 3.78L306.00 3.78Z"></path></g></svg>